<?xml version="1.0" encoding="iso-8859-1"?>
<!-- Uploaded to: SVG Repo, www.svgrepo.com, Generator: SVG Repo Mixer Tools -->
<!DOCTYPE svg PUBLIC "-//W3C//DTD SVG 1.1//EN" "http://www.w3.org/Graphics/SVG/1.1/DTD/svg11.dtd">
<svg fill="#000000" height="800px" width="800px" version="1.1" id="Capa_1" xmlns="http://www.w3.org/2000/svg" xmlns:xlink="http://www.w3.org/1999/xlink" 
	 viewBox="0 0 267.942 267.942" xml:space="preserve">
<path d="M267.865,197.108c-1.372-29.496-25.499-52.618-54.989-52.781c-0.006,0-0.012,0-0.018,0c-0.099,0-0.196-0.007-0.295-0.007
	c-3.103,0-6.145-0.442-9.053-1.293c2.053-2.552,1.897-6.294-0.472-8.663c-2.539-2.538-6.655-2.539-9.192,0l-2.203,2.203
	c-0.463-0.398-0.918-0.806-1.361-1.232l-4.597-4.427l1.353-1.353c2.539-2.538,2.539-6.654,0.001-9.192
	c-2.538-2.538-6.654-2.539-9.192,0l-1.527,1.526l-6.596-6.352l1.648-1.649c2.538-2.539,2.538-6.654-0.001-9.192
	c-2.537-2.539-6.653-2.538-9.192,0l-1.822,1.822l-6.257-6.025l1.938-1.938c2.539-2.538,2.539-6.654,0.001-9.192
	c-2.539-2.538-6.655-2.539-9.192,0l-2.111,2.111l-4.899-4.717l2.202-2.202c2.539-2.538,2.539-6.654,0.001-9.192
	c-2.538-2.538-6.654-2.539-9.192,0l-2.376,2.376l-7.976-7.68V33.626c0-2.261-1.175-4.359-3.103-5.541
	c-1.927-1.182-4.331-1.277-6.345-0.252c-1.144,0.582-26.471,13.823-25.506,41.517l-69.738,7.51c-2.923,0.315-5.27,2.552-5.726,5.455
	l-8.645,55.11l-0.17,0.129c0.024,0.032,0.067,0.088,0.125,0.162l-3.309,21.095C0.026,159.145,0,228.849,0,228.849
	c0,6.598,5.368,11.967,11.967,11.967h152.025c0.361,0,0.722-0.03,1.078-0.09l97.45-16.394c3.13-0.526,5.422-3.236,5.422-6.41
	L267.865,197.108z M13,160.326l1.759-11.213c8.819,7.273,22.349,15.488,39.397,16.653c1.373,0.094,2.743,0.141,4.113,0.141
	c16.855,0,33.538-7.091,49.737-21.127l46.93,37.124c5.53,4.375,12.174,6.515,18.79,6.515c8.3,0,16.554-3.37,22.499-9.922
	l19.124-21.076c8.509,0.551,16.339,3.602,22.752,8.447c-15.274,4.377-25.755,18.67-25.232,34.635l-49.421,8.314H13V160.326z
	 M225.899,198.31c0.476-9.834,7.552-18.331,17.423-20.357l4.989-1.026c3.129,4.916,5.282,10.527,6.164,16.576L225.899,198.31z
	 M115.178,102.222c1.27,1.269,2.933,1.904,4.597,1.904c1.663,0,3.327-0.635,4.596-1.904l6.271-6.271l4.899,4.717l-6.361,6.361
	c-2.539,2.538-2.539,6.654-0.001,9.192c1.27,1.269,2.933,1.904,4.597,1.904c1.663,0,3.327-0.635,4.596-1.904l6.535-6.535
	l6.257,6.025l-6.651,6.651c-2.538,2.539-2.538,6.654,0.001,9.192c1.269,1.269,2.933,1.904,4.596,1.904s3.327-0.635,4.597-1.904
	l6.824-6.824l6.596,6.352l-6.946,6.946c-2.539,2.538-2.539,6.654-0.001,9.192c1.27,1.269,2.933,1.904,4.597,1.904
	c1.663,0,3.327-0.635,4.596-1.904l7.12-7.12l4.773,4.597c0.383,0.369,0.777,0.721,1.171,1.075l-6.256,6.256
	c-2.539,2.538-2.539,6.654-0.001,9.192c1.27,1.269,2.933,1.904,4.597,1.904c1.663,0,3.327-0.635,4.596-1.904l8.12-8.12
	c1.977,0.923,4.018,1.702,6.111,2.328l-13.003,14.33c-6.106,6.729-16.469,7.585-23.598,1.947l-47.922-37.909L99.288,81.16
	l14.385-1.549l7.604,7.322l-6.097,6.097C112.64,95.568,112.64,99.684,115.178,102.222z M109.495,46.761v20.224l-8.96,0.965
	C100.561,58.546,104.981,51.497,109.495,46.761z M24.149,89.252l61.992-6.676l15.212,50.708
	c-15.408,13.946-30.924,20.525-46.199,19.52c-18.111-1.193-31.82-12.842-37.973-19.133L24.149,89.252z M163.449,227.816H13v-6
	h150.992c0.361,0,0.722-0.03,1.078-0.09l89.872-15.119v5.817L163.449,227.816z"/>
</svg>